<?xml version="1.0" encoding="UTF-8"?>
<svg id="Layer_1" data-name="Layer 1" xmlns="http://www.w3.org/2000/svg" viewBox="0 0 683.1 175">
  <defs>
    <style>
      .cls-1 {
        fill: #fff;
      }

      .cls-2 {
        fill: #fc7114;
      }
    </style>
  </defs>
  <g>
    <path class="cls-1" d="M206.01,97.27c-3.84,0-7.68-3.07-7.68-8.84v-19.4h-26.51v28.24h-5.09c-4.42,0-7.97-3.07-7.97-8.84V31.48h6.44c3.75,0,6.53,3.17,6.53,6.92v19.59h26.6v-26.51h5.95c3.36,0,7.01,2.69,7.01,6.92v58.87h-5.28Z"/>
    <path class="cls-1" d="M242.21,76.91h-8.45c.96,6.53,6.91,10.66,14.5,10.66,5.38,0,11.72-1.06,15.85-4.9h.48v4.03c0,6.63-4.51,11.72-18.73,11.72-12.87,0-25.45-10.18-25.45-26.03,0-17.29,10.56-28.14,25.36-28.14,10.76,0,20.75,7.68,20.75,20.07,0,9.51-7.2,12.58-24.3,12.58ZM244.61,55.01c-6.24,0-10.56,5.09-10.85,11.05l-.1,1.73h5.76c12.2,0,14.98-1.34,14.98-4.99,0-5.19-3.84-7.78-9.8-7.78Z"/>
    <path class="cls-1" d="M296.47,98.14h-2.59c-12.29,0-20.74-6.92-20.74-16.42s6.72-16.23,25.74-16.23h4.51v-.67c0-7.3-3.46-9.51-11.14-9.51-9.32,0-14.5,3.55-16.42,5.96h-.48v-4.13c0-5.76,5.19-12.68,18.82-12.68,11.53,0,21.9,5.38,21.9,23.24v11.91c0,10.95-8.07,18.54-19.59,18.54ZM303.48,74.7h-4.61c-9.8,0-12.58,2.3-12.58,6.53s3.27,6.43,8.93,6.43,8.26-2.69,8.26-7.97v-4.99Z"/>
    <path class="cls-1" d="M354.67,57.99c-1.92-.77-4.13-1.54-7.49-1.54-5.76,0-8.93,3.17-8.93,11.04v29.77h-3.55c-5.76,0-9.41-2.88-9.41-8.26v-23.82c0-10.37,5.47-20.26,19.11-20.26,7.97,0,10.76,4.51,10.76,8.45v4.61h-.48Z"/>
    <path class="cls-1" d="M365.61,37.25c1.73-2.02,4.03-3.55,6.05-3.55h2.98v11.72h17.96v5.28c0,2.69-2.4,6.15-7.68,6.15h-10.28v20.27c0,6.72,2.98,9.32,8.16,9.32,4.13,0,7.3-.58,9.32-1.82h.48v4.61c0,5.28-3.84,8.64-11.33,8.64-13.06,0-19.4-7.11-19.4-19.21v-31.12c0-5.09.96-7.01,3.75-10.28Z"/>
    <path class="cls-1" d="M441.2,97.27c-5.38,0-8.74-3.07-8.74-8.64v-21.13c0-8.45-4.61-11.81-10.28-11.81-4.03,0-9.32,3.07-9.32,12.2v29.39h-4.23c-6.05,0-8.84-3.36-8.84-8.64V28.12h4.03c6.15,0,9.12,3.46,9.12,8.26v14.79c1.92-3.07,6.34-6.92,11.24-6.92,13.35,0,21.23,7.97,21.23,22.67v30.35h-4.23Z"/>
    <path class="cls-1" d="M486.52,97.85h-5.09c-15.46,0-24.01-8.64-24.01-24.39V31.48h5.38c5.38,0,8.16,3.07,8.16,9.6v31.5c0,9.99,2.31,13.64,12.2,13.64h3.36c6.24,0,11.33-1.44,13.73-2.4v4.51c0,5.76-2.88,9.51-13.73,9.51Z"/>
    <path class="cls-1" d="M513.99,41.76c-4.13,0-7.49-3.46-7.49-7.59s3.36-7.49,7.49-7.49,7.59,3.36,7.59,7.49-3.46,7.59-7.59,7.59ZM523.11,97.75c-9.99,0-15.46-5.67-15.46-16.14v-35.06h3.65c5.76,0,9.22,3.07,9.22,9.6v24.2c0,5.19,2.21,6.82,7.88,6.82h2.4v2.79c0,5.57-2.21,7.78-7.68,7.78Z"/>
    <path class="cls-1" d="M582.56,82.77c.1,2.11.19,4.9.19,6.63,0,12.97-8.64,24.59-25.35,24.59-10.66,0-17.96-5.19-17.96-11.33v-5.86h.58c3.07,3.27,9.03,5.57,16.42,5.57,8.84,0,13.35-4.03,13.35-10.85v-7.59c-1.06,3.75-5.95,7.68-13.35,7.68-12.58,0-21.51-8.74-21.51-20.94,0-14.6,9.61-26.41,26.32-26.41,12.87,0,21.13,9.41,21.13,22.67v8.84c0,1.73.1,4.71.19,7.01ZM548.17,69.04c0,6.72,4.13,11.72,10.28,11.72s11.04-4.8,11.04-13.06-4.03-12.01-9.7-12.01c-6.63,0-11.62,5.57-11.62,13.35Z"/>
    <path class="cls-1" d="M636.14,97.27c-5.38,0-8.74-3.07-8.74-8.64v-21.13c0-8.45-4.61-11.81-10.28-11.81-4.03,0-9.32,3.07-9.32,12.2v29.39h-4.23c-6.05,0-8.84-3.36-8.84-8.64V28.12h4.03c6.15,0,9.12,3.46,9.12,8.26v14.79c1.92-3.07,6.34-6.92,11.24-6.92,13.35,0,21.23,7.97,21.23,22.67v30.35h-4.23Z"/>
    <path class="cls-1" d="M656.12,37.25c1.73-2.02,4.03-3.55,6.05-3.55h2.98v11.72h17.96v5.28c0,2.69-2.4,6.15-7.68,6.15h-10.28v20.27c0,6.72,2.98,9.32,8.16,9.32,4.13,0,7.3-.58,9.32-1.82h.48v4.61c0,5.28-3.84,8.64-11.33,8.64-13.06,0-19.4-7.11-19.4-19.21v-31.12c0-5.09.96-7.01,3.75-10.28Z"/>
  </g>
  <g>
    <path class="cls-1" d="M160.11,173.34v-43.67h6v43.67h-6Z"/>
    <path class="cls-1" d="M191.4,173.34v-43.67h6.67l21.35,34.47h.07v-34.47h5.94v43.67h-6.27l-21.75-35h-.07v35h-5.94Z"/>
    <path class="cls-1" d="M259.64,173.34v-38.54h-13.07v-5.12h32.42v5.12h-13.34v38.54h-6Z"/>
    <path class="cls-1" d="M300.13,173.34v-43.67h25.28v5.12h-19.28v13.72h16.54v5.06h-16.54v14.64h19.75v5.12h-25.75Z"/>
    <path class="cls-1" d="M364.16,174.12c-3.91,0-7.3-.82-10.17-2.46-2.87-1.64-5.07-4.13-6.6-7.45s-2.3-7.53-2.3-12.61c0-4.25.56-7.82,1.67-10.74,1.11-2.91,2.6-5.24,4.47-6.99,1.87-1.75,3.92-3.02,6.17-3.81,2.24-.79,4.48-1.18,6.7-1.18,1.6,0,3.3.21,5.1.62,1.8.42,3.57,1.15,5.3,2.2,1.73,1.05,3.31,2.56,4.74,4.53l-4.34,3.22c-1.47-1.75-3.08-3.11-4.84-4.07-1.76-.96-3.77-1.44-6.04-1.44-3.96,0-7.08,1.52-9.37,4.56-2.29,3.04-3.43,7.26-3.43,12.64,0,5.69,1.07,10.13,3.2,13.33,2.14,3.2,5.54,4.79,10.21,4.79,1.69,0,3.35-.22,4.97-.66,1.62-.44,2.88-.94,3.77-1.51v-12.74h-10.07v-4.73h15.74v20.42c-1.78,1.23-3.97,2.21-6.57,2.95-2.6.74-5.37,1.12-8.31,1.12Z"/>
    <path class="cls-1" d="M402.99,173.34v-43.67h14.28c3.16,0,5.88.38,8.17,1.15,2.29.77,4.06,2.01,5.3,3.74,1.24,1.73,1.87,4.04,1.87,6.93,0,2.41-.42,4.42-1.27,6.04-.85,1.62-1.91,2.9-3.2,3.84-1.29.94-2.58,1.61-3.87,2,.76.22,1.37.51,1.83.89s.88.84,1.23,1.41c.36.57.76,1.34,1.2,2.3l7.2,15.37h-6.47l-6.4-13.85c-.53-1.14-1.17-2.09-1.9-2.86-.73-.77-1.77-1.15-3.1-1.15h-8.87v17.86h-6ZM408.99,150.95h8.14c2.85,0,5.1-.77,6.77-2.3,1.67-1.53,2.5-3.74,2.5-6.63,0-2.32-.46-4-1.37-5.06-.91-1.05-2.26-1.73-4.04-2.04-1.78-.31-3.93-.46-6.47-.46h-5.54v16.48Z"/>
    <path class="cls-1" d="M453.01,173.34l15.41-43.67h7.14l15.88,43.67h-6.34l-4.67-12.94h-16.94l-4.54,12.94h-5.94ZM464.82,155.67h14.28l-7.14-20.68h-.13l-7,20.68Z"/>
    <path class="cls-1" d="M517.05,173.34v-38.54h-13.07v-5.12h32.42v5.12h-13.34v38.54h-6Z"/>
    <path class="cls-1" d="M557.61,173.34v-43.67h6v43.67h-6Z"/>
    <path class="cls-1" d="M605.57,174.12c-5.78,0-10.31-1.88-13.57-5.65-3.27-3.76-4.9-9.39-4.9-16.88,0-4.2.56-7.76,1.67-10.67,1.11-2.91,2.59-5.25,4.44-7.03,1.84-1.77,3.9-3.05,6.17-3.84,2.27-.79,4.54-1.18,6.8-1.18,2.45,0,4.76.41,6.94,1.21,2.18.81,4.11,2.1,5.8,3.87s3.02,4.1,4,6.99c.98,2.89,1.47,6.43,1.47,10.64,0,4.99-.78,9.16-2.33,12.51-1.56,3.35-3.74,5.85-6.54,7.52-2.8,1.66-6.12,2.49-9.94,2.49ZM606.03,169.13c2.31,0,4.25-.48,5.8-1.44,1.56-.96,2.8-2.28,3.74-3.94.93-1.66,1.6-3.53,2-5.61.4-2.08.6-4.19.6-6.34,0-1.88-.19-3.85-.57-5.91-.38-2.06-1.01-3.99-1.9-5.81-.89-1.82-2.12-3.29-3.7-4.43-1.58-1.14-3.59-1.71-6.04-1.71-2.31,0-4.29.49-5.94,1.48-1.65.98-2.96,2.31-3.94,3.97-.98,1.66-1.7,3.54-2.17,5.61-.47,2.08-.7,4.19-.7,6.34s.18,4.2.53,6.3c.35,2.1,1,4.02,1.93,5.75.93,1.73,2.24,3.12,3.9,4.17,1.67,1.05,3.81,1.58,6.44,1.58Z"/>
    <path class="cls-1" d="M647.72,173.34v-43.67h6.67l21.35,34.47h.07v-34.47h5.94v43.67h-6.27l-21.75-35h-.07v35h-5.94Z"/>
  </g>
  <g>
    <path class="cls-2" d="M89.59,118.88c0,16.96-12.46,23.04-18.47,24.99-.88.29-1.63-.72-1.1-1.48,1.44-2.05,3.11-5.53,3.11-10.66C73.13,100.43,0,92.91,0,52.41,0,23.48,25.37,9.32,38.73,3.87c1.06-.43,1.86,1,.95,1.68-6.97,5.2-16.6,14.85-16.6,28.6,0,25.55,27.71,39.7,47.35,55.38v.03c8.84,7.01,16.01,14.34,18.35,23.14.51,1.99.8,4.02.8,6.17Z"/>
    <path class="cls-2" d="M96.04,104.48c-3.48-7.59-9.52-14.04-16.54-19.94-.41-.35-.46-.96-.12-1.37,28.38-33.82,13.04-63.38,1.81-77.99-.65-.85.36-1.98,1.28-1.42,28.2,17.3,54.39,53.82,15.2,100.94-.46.55-1.33.43-1.63-.22Z"/>
    <path class="cls-2" d="M66.76,31.97c-.46-.94.63-1.86,1.46-1.22,3.34,2.56,7.26,7.22,7.26,14.97,0,12.94-10.87,15.78-15.56,15.78s-15.64-3.67-15.64-18.06S61.23,11.44,61.23,1.09c0-.03,0-.05,0-.08-.01-1.14,1.58-1.41,1.9-.32.41,1.39.68,3.05.68,5.02,0,7.51-8.52,17.87-8.52,28.77,0,6.56,3.23,8.1,5.94,8.1s6.42-2.53,6.42-6.88c0-1.41-.38-2.67-.91-3.73Z"/>
    <path class="cls-2" d="M65.06,134.8c0,2.51-.42,4.5-1.29,6.08v.03c-1.73,3.08-5.24,4.47-10.8,4.47-13.99,0-24.49-3.41-27.2-17.45-.18-.9.87-1.53,1.58-.94,1.07.89,2.44,1.73,3.83,1.73,2.64,0,3.83-1.58,3.83-3.83,0-6.65-22.92-17.13-32.08-42.43-.4-1.11-.78-2.24-1.13-3.4-.34-1.17.99-1.84,1.73-.88,14.52,23.43,61.53,36.49,61.53,56.61Z"/>
    <path class="cls-2" d="M77.6,149.4c.67-.26,1.38.27,1.32.98-.02.29-.06.58-.1.87-1.06,9.19-8.52,12.38-23.21,12.38s-22.9-3.22-23.69-13.43c-.06-.71.68-1.24,1.34-.96,2.57,1.05,9.03,2.95,22.29,2.95,5.3,0,9.48-.29,12.76-.71,4.9-.6,7.78-1.48,9.29-2.07Z"/>
    <path class="cls-2" d="M55.64,167.59c8.34,0,12.66-.98,14.61-1.64.68-.23,1.36.34,1.27,1.05-.75,5.93-5.83,8.01-15.85,8.01s-15.29-1.97-16.11-8.11c-.1-.72.6-1.29,1.28-1.05,2,.7,6.41,1.75,14.8,1.75Z"/>
  </g>
</svg>